<?xml version="1.0" encoding="UTF-8"?>
<svg width="15px" height="15px" viewBox="0 0 15 15" version="1.1" xmlns="http://www.w3.org/2000/svg" xmlns:xlink="http://www.w3.org/1999/xlink">
    <!-- Generator: Sketch 44.1 (41455) - http://www.bohemiancoding.com/sketch -->
    <title>material/icn-wood</title>
    <desc>Created with Sketch.</desc>
    <defs></defs>
    <g id="Symbols" stroke="none" stroke-width="1" fill="none" fill-rule="evenodd">
        <g id="material/icn-wood">
            <g id="Group-12">
                <path d="M9.05122925,4.88582563 C10.1742918,5.7980846 11.4398477,6.55740099 12.8201672,7.14979287 C12.9032198,7.18548356 13,7.13053707 13,7.04811733 L13,6.17093581 C13,6.12899005 12.9737801,6.09084639 12.9320479,6.07171323 C11.7966305,5.54861771 10.7503058,4.90115668 9.81160614,4.13865144 C9.03104954,3.50455909 7.91402721,2.37938246 7.9027705,2.3680988 L7.57550231,2.0378066 C7.52567078,1.98752075 7.43795083,1.9873981 7.38784475,2.03743866 L6.92357419,2.50117234 C6.55773119,2.86727789 6.18269063,3.24233676 5.73640334,3.63996295 L4.60606514,4.55712786 C3.82303756,5.13210366 2.97439161,5.63361307 2.06767752,6.05429716 C2.02621989,6.07355296 2,6.11157397 2,6.15339708 L2,7.03205039 C2,7.11447013 2.09691751,7.16941662 2.18010733,7.13360328 C3.54573818,6.54366437 4.79839012,5.78974451 5.91115687,4.88594828 C6.29196306,4.57662896 6.62513416,4.27908388 6.92700612,3.99527543 L6.92700612,6.59345962 L6.92371147,6.59677113 C6.40864845,7.11213981 5.87615125,7.64516985 5.15091726,8.23425023 C4.22265069,8.98829273 3.18881817,9.62986663 2.0678148,10.1498959 C2.02635717,10.1691517 2.00027455,10.2072954 2.00027455,10.2489959 L2.00027455,11.1276492 C2.00027455,11.2101916 2.09705479,11.2651381 2.1802446,11.2292021 C3.54587545,10.6392632 4.79852739,9.8853433 5.91129415,8.98142442 C6.29210034,8.6721051 6.62527143,8.37456002 6.92714339,8.09075157 L6.92714339,12.8885126 C6.92714339,12.9500821 6.9830151,13 7.05192812,13 L7.93255959,13 C8.00147261,13 8.05734432,12.9500821 8.05734432,12.8885126 L8.05734432,8.10277112 C8.38145514,8.40571272 8.73727692,8.72643835 9.05122925,8.98154707 C10.1742918,9.89380604 11.4398477,10.6531224 12.8203045,11.2455143 C12.9034943,11.281205 13,11.2262585 13,11.1438388 L13,10.2666572 C13,10.2248341 12.9737801,10.1865678 12.9320479,10.1674347 C11.7966305,9.64433915 10.7503058,8.99675547 9.81160614,8.23437288 C9.20250842,7.73960914 8.39078997,6.94803622 8.05734432,6.61774401 L8.05734432,4.00704968 C8.38131786,4.30999129 8.73727692,4.63083956 9.05122925,4.88582563 Z" id="Shape-Copy-5" fill="#fff" fill-rule="nonzero"></path>
            </g>
        </g>
    </g>
</svg>
