<?xml version="1.0" encoding="UTF-8"?>
<svg width="15px" height="15px" viewBox="0 0 15 15" version="1.1" xmlns="http://www.w3.org/2000/svg" xmlns:xlink="http://www.w3.org/1999/xlink">
    <!-- Generator: Sketch 44.1 (41455) - http://www.bohemiancoding.com/sketch -->
    <title>material/icn-biomass</title>
    <desc>Created with Sketch.</desc>
    <defs>
        <polygon id="path-1" points="1.4672 16 0.4672 16 0.4672 0.7296 1.4672 0.7296"></polygon>
    </defs>
    <g id="Symbols" stroke="none" stroke-width="1" fill="none" fill-rule="evenodd">
        <g id="material/icn-biomass">
            <g id="Group-9" transform="translate(7.500000, 7.500000) rotate(-315.000000) translate(-7.500000, -7.500000) translate(4.000000, -1.000000)">
                <g id="Page-1">
                    <path d="M6.5345,7.0432 C6.5345,4.6992 5.3105,2.6422 3.4675,1.4742 C1.6245,2.6422 0.3995,4.6992 0.3995,7.0432 C0.3995,9.3872 1.6245,11.4442 3.4675,12.6122 C5.3105,11.4442 6.5345,9.3872 6.5345,7.0432 Z" id="Stroke-1" stroke="#fff" stroke-width="0.8"></path>
                    <g id="Group-5" transform="translate(3.000000, 0.744200)">
                        <mask id="mask-2" fill="white">
                            <use xlink:href="#path-1"></use>
                        </mask>
                        <g id="Clip-4"></g>
                    </g>
                    <path d="M3.4384,9.4367 L6.4744,6.4017" id="Stroke-6" stroke="#fff" stroke-width="0.8"></path>
                    <path d="M3.4384,6.5583 L5.8584,4.1383" id="Stroke-8" stroke="#fff" stroke-width="0.8"></path>
                    <path d="M3.4354,9.4367 L0.3994,6.4017" id="Stroke-10" stroke="#fff" stroke-width="0.8"></path>
                    <path d="M3.4354,6.5583 L1.0154,4.1383" id="Stroke-12" stroke="#fff" stroke-width="0.8"></path>
                </g>
                <path d="M3.4,2.5 L3.4,16.5" id="Line" stroke="#fff" stroke-width="0.8" stroke-linecap="square"></path>
            </g>
        </g>
    </g>
</svg>
